<svg width="48" height="48" viewBox="0 0 48 48" fill="none" xmlns="http://www.w3.org/2000/svg">
<rect width="48" height="48" rx="7" fill="#3ECCEB"/>
<path fill-rule="evenodd" clip-rule="evenodd" d="M19.5204 16.146C20.2923 16.0844 21.0251 15.7808 21.6144 15.2784C22.28 14.7115 23.1257 14.4002 24 14.4002C24.8743 14.4002 25.72 14.7115 26.3856 15.2784C26.9749 15.7808 27.7077 16.0844 28.4796 16.146C29.3513 16.2157 30.1697 16.5936 30.7881 17.2119C31.4064 17.8303 31.7843 18.6487 31.854 19.5204C31.9152 20.292 32.2188 21.0252 32.7216 21.6144C33.2885 22.28 33.5998 23.1257 33.5998 24C33.5998 24.8743 33.2885 25.72 32.7216 26.3856C32.2192 26.9749 31.9156 27.7077 31.854 28.4796C31.7843 29.3513 31.4064 30.1697 30.7881 30.7881C30.1697 31.4065 29.3513 31.7843 28.4796 31.854C27.7077 31.9156 26.9749 32.2192 26.3856 32.7216C25.72 33.2885 24.8743 33.5998 24 33.5998C23.1257 33.5998 22.28 33.2885 21.6144 32.7216C21.0251 32.2192 20.2923 31.9156 19.5204 31.854C18.6487 31.7843 17.8303 31.4065 17.2119 30.7881C16.5935 30.1697 16.2156 29.3513 16.146 28.4796C16.0843 27.7077 15.7807 26.9749 15.2784 26.3856C14.7115 25.72 14.4001 24.8743 14.4001 24C14.4001 23.1257 14.7115 22.28 15.2784 21.6144C15.7807 21.0251 16.0843 20.2923 16.146 19.5204C16.2156 18.6487 16.5935 17.8303 17.2119 17.2119C17.8303 16.5936 18.6487 16.2157 19.5204 16.146V16.146ZM28.4484 22.4484C28.667 22.2221 28.7879 21.919 28.7852 21.6043C28.7825 21.2897 28.6562 20.9887 28.4338 20.7662C28.2113 20.5437 27.9103 20.4175 27.5957 20.4148C27.281 20.4121 26.9779 20.533 26.7516 20.7516L22.8 24.7032L21.2484 23.1516C21.0221 22.933 20.7189 22.8121 20.4043 22.8148C20.0897 22.8175 19.7887 22.9437 19.5662 23.1662C19.3437 23.3887 19.2175 23.6897 19.2148 24.0043C19.212 24.319 19.333 24.6221 19.5516 24.8484L21.9516 27.2484C22.1766 27.4734 22.4818 27.5998 22.8 27.5998C23.1182 27.5998 23.4233 27.4734 23.6484 27.2484L28.4484 22.4484V22.4484Z" fill="#18181B"/>
</svg>
