<svg width="48" height="48" viewBox="0 0 48 48" fill="none" xmlns="http://www.w3.org/2000/svg">
<rect width="48" height="48" rx="7" fill="#EB9B3E"/>
<path d="M24.8484 14.7516C24.6234 14.5266 24.3182 14.4003 24 14.4003C23.6819 14.4003 23.3767 14.5266 23.1516 14.7516L14.7516 23.1516C14.5331 23.3779 14.4121 23.6811 14.4148 23.9957C14.4176 24.3103 14.5438 24.6113 14.7663 24.8338C14.9888 25.0563 15.2897 25.1825 15.6044 25.1852C15.919 25.188 16.2221 25.067 16.4484 24.8484L16.8 24.4968V32.4C16.8 32.7183 16.9265 33.0235 17.1515 33.2485C17.3766 33.4736 17.6818 33.6 18 33.6H20.4C20.7183 33.6 21.0235 33.4736 21.2486 33.2485C21.4736 33.0235 21.6 32.7183 21.6 32.4V30C21.6 29.6818 21.7265 29.3765 21.9515 29.1515C22.1766 28.9264 22.4818 28.8 22.8 28.8H25.2C25.5183 28.8 25.8235 28.9264 26.0486 29.1515C26.2736 29.3765 26.4 29.6818 26.4 30V32.4C26.4 32.7183 26.5265 33.0235 26.7515 33.2485C26.9766 33.4736 27.2818 33.6 27.6 33.6H30C30.3183 33.6 30.6235 33.4736 30.8486 33.2485C31.0736 33.0235 31.2 32.7183 31.2 32.4V24.4968L31.5516 24.8484C31.778 25.067 32.0811 25.188 32.3957 25.1852C32.7104 25.1825 33.0113 25.0563 33.2338 24.8338C33.4563 24.6113 33.5825 24.3103 33.5853 23.9957C33.588 23.6811 33.467 23.3779 33.2484 23.1516L24.8484 14.7516V14.7516Z" fill="#18181B"/>
</svg>
