<svg width="48" height="48" viewBox="0 0 48 48" fill="none" xmlns="http://www.w3.org/2000/svg">
<rect width="48" height="48" rx="7" fill="#EB3EC0"/>
<path d="M25.4 14.2C25.4 13.8287 25.2525 13.4726 24.99 13.21C24.7274 12.9475 24.3714 12.8 24 12.8C23.6287 12.8 23.2727 12.9475 23.0101 13.21C22.7475 13.4726 22.6 13.8287 22.6 14.2V15.6C22.6 15.9713 22.7475 16.3274 23.0101 16.5899C23.2727 16.8525 23.6287 17 24 17C24.3714 17 24.7274 16.8525 24.99 16.5899C25.2525 16.3274 25.4 15.9713 25.4 15.6V14.2ZM31.9198 18.0598C32.1749 17.7957 32.316 17.4421 32.3128 17.075C32.3096 16.708 32.1624 16.3568 31.9028 16.0972C31.6432 15.8377 31.2921 15.6904 30.925 15.6872C30.5579 15.6841 30.2043 15.8252 29.9403 16.0802L28.9505 17.07C28.6954 17.334 28.5543 17.6877 28.5575 18.0547C28.5607 18.4218 28.7079 18.773 28.9675 19.0325C29.2271 19.2921 29.5782 19.4393 29.9453 19.4425C30.3124 19.4457 30.666 19.3046 30.93 19.0496L31.9198 18.0598ZM35.2001 24C35.2001 24.3713 35.0526 24.7274 34.79 24.9899C34.5274 25.2525 34.1714 25.4 33.8001 25.4H32.4001C32.0287 25.4 31.6727 25.2525 31.4101 24.9899C31.1475 24.7274 31.0001 24.3713 31.0001 24C31.0001 23.6287 31.1475 23.2726 31.4101 23.01C31.6727 22.7475 32.0287 22.6 32.4001 22.6H33.8001C34.1714 22.6 34.5274 22.7475 34.79 23.01C35.0526 23.2726 35.2001 23.6287 35.2001 24ZM17.07 19.0496C17.1992 19.1833 17.3537 19.29 17.5245 19.3633C17.6953 19.4367 17.879 19.4753 18.0649 19.4769C18.2508 19.4786 18.4351 19.4431 18.6072 19.3727C18.7792 19.3023 18.9356 19.1984 19.067 19.0669C19.1985 18.9355 19.3024 18.7792 19.3728 18.6071C19.4432 18.4351 19.4786 18.2507 19.477 18.0648C19.4754 17.8789 19.4368 17.6952 19.3634 17.5244C19.29 17.3536 19.1834 17.1991 19.0496 17.07L18.0598 16.0802C17.7958 15.8252 17.4422 15.6841 17.0751 15.6872C16.708 15.6904 16.3569 15.8377 16.0973 16.0972C15.8377 16.3568 15.6905 16.708 15.6873 17.075C15.6841 17.4421 15.8252 17.7957 16.0802 18.0598L17.07 19.0496V19.0496ZM17 24C17 24.3713 16.8525 24.7274 16.59 24.9899C16.3274 25.2525 15.9714 25.4 15.6 25.4H14.2C13.8287 25.4 13.4727 25.2525 13.2101 24.9899C12.9475 24.7274 12.8 24.3713 12.8 24C12.8 23.6287 12.9475 23.2726 13.2101 23.01C13.4727 22.7475 13.8287 22.6 14.2 22.6H15.6C15.9714 22.6 16.3274 22.7475 16.59 23.01C16.8525 23.2726 17 23.6287 17 24ZM21.2 32.4V31H26.8V32.4C26.8 33.1426 26.5051 33.8548 25.9799 34.3799C25.4548 34.905 24.7427 35.2 24 35.2C23.2574 35.2 22.5453 34.905 22.0202 34.3799C21.495 33.8548 21.2 33.1426 21.2 32.4V32.4ZM26.8 29.6C26.821 29.124 27.0913 28.6956 27.4679 28.3974C28.3816 27.6767 29.0482 26.6893 29.3749 25.5724C29.7015 24.4555 29.6722 23.2645 29.2908 22.165C28.9094 21.0656 28.195 20.1123 27.2468 19.4375C26.2986 18.7628 25.1638 18.4003 24 18.4003C22.8363 18.4003 21.7015 18.7628 20.7533 19.4375C19.8051 20.1123 19.0907 21.0656 18.7093 22.165C18.3279 23.2645 18.2986 24.4555 18.6252 25.5724C18.9519 26.6893 19.6185 27.6767 20.5322 28.3974C20.9102 28.6956 21.179 29.124 21.1986 29.6H26.8015H26.8Z" fill="#18181B"/>
</svg>
