<svg width="48" height="48" viewBox="0 0 48 48" fill="none" xmlns="http://www.w3.org/2000/svg">
<rect width="48" height="48" rx="7" fill="#67EB3E"/>
<path fill-rule="evenodd" clip-rule="evenodd" d="M18.0001 22.8V20.4C18.0001 18.8087 18.6322 17.2826 19.7575 16.1574C20.8827 15.0321 22.4088 14.4 24.0001 14.4C25.5914 14.4 27.1175 15.0321 28.2427 16.1574C29.368 17.2826 30.0001 18.8087 30.0001 20.4V22.8C30.6366 22.8 31.2471 23.0529 31.6972 23.5029C32.1472 23.953 32.4001 24.5635 32.4001 25.2V31.2C32.4001 31.8365 32.1472 32.447 31.6972 32.8971C31.2471 33.3471 30.6366 33.6 30.0001 33.6H18.0001C17.3636 33.6 16.7531 33.3471 16.303 32.8971C15.853 32.447 15.6001 31.8365 15.6001 31.2V25.2C15.6001 24.5635 15.853 23.953 16.303 23.5029C16.7531 23.0529 17.3636 22.8 18.0001 22.8V22.8ZM27.6001 20.4V22.8H20.4001V20.4C20.4001 19.4452 20.7794 18.5295 21.4545 17.8544C22.1296 17.1793 23.0453 16.8 24.0001 16.8C24.9549 16.8 25.8706 17.1793 26.5457 17.8544C27.2208 18.5295 27.6001 19.4452 27.6001 20.4V20.4Z" fill="#18181B"/>
</svg>
