<svg width="28" height="28" viewBox="0 0 28 28" fill="none" xmlns="http://www.w3.org/2000/svg">
<g filter="url(#filter0_i_8627_520)">
<rect x="28" width="28" height="28" rx="14" transform="rotate(90 28 0)" fill="url(#paint0_linear_8627_520)"/>
</g>
<path fill-rule="evenodd" clip-rule="evenodd" d="M17.5191 7.8809C17.7629 8.12468 17.8998 8.45528 17.8998 8.8C17.8998 9.14471 17.7629 9.47531 17.5191 9.7191L13.2382 14L17.5191 18.2809C17.6433 18.4008 17.7423 18.5443 17.8105 18.7029C17.8786 18.8615 17.9145 19.0321 17.916 19.2047C17.9175 19.3773 17.8846 19.5485 17.8192 19.7082C17.7538 19.868 17.6573 20.0132 17.5353 20.1352C17.4132 20.2573 17.268 20.3538 17.1083 20.4192C16.9485 20.4845 16.7773 20.5174 16.6047 20.5159C16.4321 20.5144 16.2615 20.4786 16.1029 20.4104C15.9443 20.3423 15.8009 20.2433 15.6809 20.1191L10.4809 14.9191C10.2372 14.6753 10.1003 14.3447 10.1003 14C10.1003 13.6553 10.2372 13.3247 10.4809 13.0809L15.6809 7.8809C15.9247 7.63718 16.2553 7.50027 16.6 7.50027C16.9448 7.50027 17.2754 7.63718 17.5191 7.8809V7.8809Z" fill="white"/>
<defs>
<filter id="filter0_i_8627_520" x="0" y="-3" width="30" height="31" filterUnits="userSpaceOnUse" color-interpolation-filters="sRGB">
<feFlood flood-opacity="0" result="BackgroundImageFix"/>
<feBlend mode="normal" in="SourceGraphic" in2="BackgroundImageFix" result="shape"/>
<feColorMatrix in="SourceAlpha" type="matrix" values="0 0 0 0 0 0 0 0 0 0 0 0 0 0 0 0 0 0 127 0" result="hardAlpha"/>
<feMorphology radius="2" operator="erode" in="SourceAlpha" result="effect1_innerShadow_8627_520"/>
<feOffset dx="2" dy="-3"/>
<feGaussianBlur stdDeviation="2.5"/>
<feComposite in2="hardAlpha" operator="arithmetic" k2="-1" k3="1"/>
<feColorMatrix type="matrix" values="0 0 0 0 0 0 0 0 0 0 0 0 0 0 0 0 0 0 0.25 0"/>
<feBlend mode="normal" in2="shape" result="effect1_innerShadow_8627_520"/>
</filter>
<linearGradient id="paint0_linear_8627_520" x1="65" y1="-10.5" x2="28" y2="34.5" gradientUnits="userSpaceOnUse">
<stop stop-color="#5B479F"/>
<stop offset="0.566764" stop-color="#2B1F56"/>
<stop offset="1" stop-color="#0E0C15"/>
</linearGradient>
</defs>
</svg>
