<svg width="11" height="13" viewBox="0 0 11 13" fill="none" xmlns="http://www.w3.org/2000/svg">
<path fill-rule="evenodd" clip-rule="evenodd" d="M0.292787 7.29272C0.480314 7.10524 0.734622 6.99993 0.999786 6.99993C1.26495 6.99993 1.51926 7.10524 1.70679 7.29272L4.99979 10.5857L8.29279 7.29272C8.38503 7.1972 8.49538 7.12102 8.61738 7.06861C8.73939 7.0162 8.87061 6.98862 9.00339 6.98746C9.13616 6.98631 9.26784 7.01161 9.39074 7.06189C9.51364 7.11217 9.62529 7.18643 9.71918 7.28032C9.81307 7.37421 9.88733 7.48586 9.93761 7.60876C9.98789 7.73166 10.0132 7.86334 10.012 7.99612C10.0109 8.1289 9.9833 8.26012 9.93089 8.38212C9.87848 8.50412 9.8023 8.61447 9.70679 8.70671L5.70679 12.7067C5.51926 12.8942 5.26495 12.9995 4.99979 12.9995C4.73462 12.9995 4.48031 12.8942 4.29279 12.7067L0.292787 8.70671C0.105316 8.51919 0 8.26488 0 7.99971C0 7.73455 0.105316 7.48024 0.292787 7.29272V7.29272Z" fill="#EDEDED" fill-opacity="0.62"/>
<path fill-rule="evenodd" clip-rule="evenodd" d="M9.7068 5.70679C9.51927 5.89426 9.26496 5.99957 8.9998 5.99957C8.73463 5.99957 8.48032 5.89426 8.2928 5.70679L4.9998 2.41379L1.7068 5.70679C1.51819 5.88894 1.26559 5.98974 1.0034 5.98746C0.741199 5.98518 0.490387 5.88001 0.304978 5.6946C0.11957 5.5092 0.0144012 5.25838 0.0121228 4.99619C0.00984434 4.73399 0.110639 4.48139 0.292797 4.29279L4.2928 0.292787C4.48032 0.105316 4.73463 0 4.9998 0C5.26496 0 5.51927 0.105316 5.7068 0.292787L9.7068 4.29279C9.89427 4.48031 9.99958 4.73462 9.99958 4.99979C9.99958 5.26495 9.89427 5.51926 9.7068 5.70679V5.70679Z" fill="#EDEDED" fill-opacity="0.62"/>
</svg>
