<svg width="48" height="48" viewBox="0 0 48 48" fill="none" xmlns="http://www.w3.org/2000/svg">
<rect width="48" height="48" rx="7" fill="#3EB7EB"/>
<path fill-rule="evenodd" clip-rule="evenodd" d="M23.9999 14.4C23.6816 14.4 23.3764 14.5265 23.1514 14.7515C22.9263 14.9765 22.7999 15.2818 22.7999 15.6V16.8C22.7999 17.1183 22.9263 17.4235 23.1514 17.6486C23.3764 17.8736 23.6816 18 23.9999 18C24.3182 18 24.6234 17.8736 24.8484 17.6486C25.0735 17.4235 25.1999 17.1183 25.1999 16.8V15.6C25.1999 15.2818 25.0735 14.9765 24.8484 14.7515C24.6234 14.5265 24.3182 14.4 23.9999 14.4V14.4ZM16.7999 16.8H20.3999C20.3999 17.7548 20.7792 18.6705 21.4543 19.3456C22.1294 20.0207 23.0451 20.4 23.9999 20.4C24.9547 20.4 25.8704 20.0207 26.5455 19.3456C27.2206 18.6705 27.5999 17.7548 27.5999 16.8H31.1999C31.8364 16.8 32.4469 17.0529 32.897 17.503C33.347 17.9531 33.5999 18.5635 33.5999 19.2V30C33.5999 30.6365 33.347 31.247 32.897 31.6971C32.4469 32.1472 31.8364 32.4 31.1999 32.4H16.7999C16.1634 32.4 15.5529 32.1472 15.1028 31.6971C14.6528 31.247 14.3999 30.6365 14.3999 30V19.2C14.3999 18.5635 14.6528 17.9531 15.1028 17.503C15.5529 17.0529 16.1634 16.8 16.7999 16.8V16.8ZM19.7999 25.2C20.2773 25.2 20.7351 25.0104 21.0727 24.6728C21.4103 24.3353 21.5999 23.8774 21.5999 23.4C21.5999 22.9226 21.4103 22.4648 21.0727 22.1272C20.7351 21.7897 20.2773 21.6 19.7999 21.6C19.3225 21.6 18.8647 21.7897 18.5271 22.1272C18.1895 22.4648 17.9999 22.9226 17.9999 23.4C17.9999 23.8774 18.1895 24.3353 18.5271 24.6728C18.8647 25.0104 19.3225 25.2 19.7999 25.2V25.2ZM22.7399 30C22.8284 29.5643 22.8189 29.1144 22.7122 28.6828C22.6054 28.2512 22.4041 27.8487 22.1227 27.5045C21.8414 27.1602 21.487 26.8828 21.0853 26.6923C20.6835 26.5019 20.2445 26.403 19.7999 26.403C19.3553 26.403 18.9163 26.5019 18.5145 26.6923C18.1128 26.8828 17.7584 27.1602 17.4771 27.5045C17.1957 27.8487 16.9944 28.2512 16.8876 28.6828C16.7809 29.1144 16.7714 29.5643 16.8599 30H22.7399ZM26.3999 22.8C26.0816 22.8 25.7764 22.9265 25.5514 23.1515C25.3263 23.3765 25.1999 23.6818 25.1999 24C25.1999 24.3183 25.3263 24.6235 25.5514 24.8486C25.7764 25.0736 26.0816 25.2 26.3999 25.2H29.9999C30.3182 25.2 30.6234 25.0736 30.8484 24.8486C31.0735 24.6235 31.1999 24.3183 31.1999 24C31.1999 23.6818 31.0735 23.3765 30.8484 23.1515C30.6234 22.9265 30.3182 22.8 29.9999 22.8H26.3999ZM25.1999 27.6C25.1999 27.2818 25.3263 26.9765 25.5514 26.7515C25.7764 26.5265 26.0816 26.4 26.3999 26.4H28.7999C29.1182 26.4 29.4234 26.5265 29.6484 26.7515C29.8735 26.9765 29.9999 27.2818 29.9999 27.6C29.9999 27.9183 29.8735 28.2235 29.6484 28.4486C29.4234 28.6736 29.1182 28.8 28.7999 28.8H26.3999C26.0816 28.8 25.7764 28.6736 25.5514 28.4486C25.3263 28.2235 25.1999 27.9183 25.1999 27.6Z" fill="#18181B"/>
</svg>
