<svg width="48" height="48" viewBox="0 0 48 48" fill="none" xmlns="http://www.w3.org/2000/svg">
<rect width="48" height="48" rx="7" fill="#EB9B3E"/>
<path fill-rule="evenodd" clip-rule="evenodd" d="M25.5599 13.2552C25.8035 13.3318 26.0163 13.4841 26.1674 13.69C26.3185 13.8959 26.3999 14.1446 26.3999 14.4V20.4H31.1999C31.4194 20.3999 31.6347 20.46 31.8224 20.5738C32.0101 20.6876 32.1631 20.8506 32.2645 21.0453C32.366 21.2399 32.4121 21.4587 32.3979 21.6777C32.3837 21.8968 32.3097 22.1077 32.1839 22.2876L23.7839 34.2876C23.6377 34.497 23.4285 34.6544 23.1867 34.7367C22.9449 34.819 22.6832 34.8221 22.4395 34.7454C22.1959 34.6687 21.9831 34.5162 21.8321 34.3102C21.6811 34.1042 21.5997 33.8554 21.5999 33.6V27.6H16.7999C16.5804 27.6001 16.3651 27.54 16.1774 27.4262C15.9896 27.3124 15.8367 27.1493 15.7353 26.9547C15.6338 26.7601 15.5877 26.5413 15.6019 26.3223C15.6161 26.1032 15.6901 25.8923 15.8159 25.7124L24.2159 13.7124C24.3623 13.5033 24.5716 13.3464 24.8133 13.2644C25.055 13.1824 25.3165 13.1796 25.5599 13.2564V13.2552Z" fill="#18181B"/>
</svg>
