<svg width="48" height="48" viewBox="0 0 48 48" fill="none" xmlns="http://www.w3.org/2000/svg">
<rect width="48" height="48" rx="7" fill="#EB3ED4" fill-opacity="0.79"/>
<path fill-rule="evenodd" clip-rule="evenodd" d="M26.1085 14.4408C26.4409 14.5284 26.7193 14.7551 26.8741 15.0635C27.4537 16.2239 27.8869 16.9284 28.3225 17.4996C28.7641 18.078 29.2297 18.5508 29.9401 19.26C31.5793 20.9004 32.4001 23.052 32.4001 25.2C32.4001 27.348 31.5793 29.4996 29.9401 31.14C26.6593 34.4196 21.3409 34.4196 18.0601 31.14C16.4209 29.4996 15.6001 27.348 15.6001 25.2C15.6001 23.052 16.4209 20.9004 18.0601 19.26C18.4033 18.9168 18.9193 18.8147 19.3681 19.0007C19.8169 19.1855 20.1085 19.6236 20.1085 20.1084C20.1085 21.4524 20.1925 22.476 20.5861 23.2932C20.8021 23.742 21.1393 24.1812 21.7201 24.5736C21.8593 23.3004 22.1137 21.7488 22.4569 20.2776C22.7269 19.1184 23.0629 17.9616 23.4637 16.9968C23.6641 16.5132 23.8909 16.0547 24.1477 15.6575C24.3973 15.2711 24.7189 14.8788 25.1341 14.6016C25.4209 14.4108 25.7761 14.352 26.1085 14.4408ZM26.5453 30.1451C25.1401 31.5515 22.8601 31.5515 21.4549 30.1451C20.7517 29.4431 20.4001 28.5216 20.4001 27.6C20.4001 27.6 21.4549 28.2 23.4001 28.2C23.4001 27 24.0001 23.4 24.9001 22.8C25.5001 24 25.8433 24.3516 26.5453 25.0548C27.2485 25.7568 27.6001 26.6784 27.6001 27.6C27.6001 28.5216 27.2485 29.4431 26.5453 30.1451Z" fill="#18181B"/>
</svg>
