<svg width="48" height="48" viewBox="0 0 48 48" fill="none" xmlns="http://www.w3.org/2000/svg">
<rect width="48" height="48" rx="7" fill="#EB3E3E"/>
<path fill-rule="evenodd" clip-rule="evenodd" d="M16.8001 14.4C17.1184 14.4 17.4236 14.5265 17.6486 14.7515C17.8737 14.9765 18.0001 15.2818 18.0001 15.6V18.1212C18.9985 17.1028 20.2398 16.3552 21.607 15.949C22.9742 15.5427 24.4222 15.4912 25.8148 15.7992C27.2074 16.1073 28.4987 16.7647 29.567 17.7096C30.6353 18.6546 31.4455 19.8559 31.9213 21.2004C31.979 21.3501 32.0061 21.5099 32.001 21.6703C31.9959 21.8306 31.9587 21.9884 31.8916 22.1341C31.8245 22.2798 31.7288 22.4106 31.6103 22.5188C31.4917 22.6269 31.3527 22.7101 31.2014 22.7636C31.0501 22.817 30.8896 22.8396 30.7295 22.83C30.5693 22.8203 30.4127 22.7786 30.2689 22.7074C30.1252 22.6362 29.9971 22.5368 29.8924 22.4153C29.7877 22.2937 29.7084 22.1524 29.6593 21.9996C29.2971 20.9758 28.6638 20.0694 27.8271 19.3771C26.9904 18.6848 25.9815 18.2324 24.908 18.0683C23.8344 17.9041 22.7365 18.0343 21.7311 18.4449C20.7257 18.8555 19.8505 19.5312 19.1989 20.4H22.8001C23.1184 20.4 23.4236 20.5265 23.6486 20.7515C23.8737 20.9765 24.0001 21.2818 24.0001 21.6C24.0001 21.9183 23.8737 22.2235 23.6486 22.4486C23.4236 22.6736 23.1184 22.8 22.8001 22.8H16.8001C16.4818 22.8 16.1766 22.6736 15.9516 22.4486C15.7265 22.2235 15.6001 21.9183 15.6001 21.6V15.6C15.6001 15.2818 15.7265 14.9765 15.9516 14.7515C16.1766 14.5265 16.4818 14.4 16.8001 14.4V14.4ZM16.8097 25.2684C16.9583 25.2159 17.1158 25.1932 17.2732 25.2016C17.4305 25.21 17.5847 25.2493 17.7269 25.3173C17.8691 25.3852 17.9965 25.4806 18.1019 25.5978C18.2072 25.715 18.2884 25.8518 18.3409 26.0004C18.7031 27.0242 19.3364 27.9306 20.1731 28.6229C21.0098 29.3153 22.0187 29.7676 23.0922 29.9318C24.1658 30.0959 25.2637 29.9658 26.2691 29.5551C27.2745 29.1445 28.1496 28.4688 28.8013 27.6H25.2001C24.8818 27.6 24.5766 27.4736 24.3516 27.2486C24.1265 27.0235 24.0001 26.7183 24.0001 26.4C24.0001 26.0818 24.1265 25.7765 24.3516 25.5515C24.5766 25.3265 24.8818 25.2 25.2001 25.2H31.2001C31.5184 25.2 31.8236 25.3265 32.0486 25.5515C32.2737 25.7765 32.4001 26.0818 32.4001 26.4V32.4C32.4001 32.7183 32.2737 33.0235 32.0486 33.2486C31.8236 33.4736 31.5184 33.6 31.2001 33.6C30.8818 33.6 30.5766 33.4736 30.3516 33.2486C30.1265 33.0235 30.0001 32.7183 30.0001 32.4V29.8788C29.0016 30.8973 27.7604 31.6449 26.3932 32.0511C25.026 32.4573 23.578 32.5088 22.1854 32.2008C20.7928 31.8928 19.5015 31.2354 18.4332 30.2904C17.3649 29.3455 16.5547 28.1442 16.0789 26.7996C16.0264 26.651 16.0037 26.4935 16.0121 26.3362C16.0205 26.1788 16.0598 26.0246 16.1277 25.8824C16.1957 25.7402 16.291 25.6128 16.4083 25.5075C16.5255 25.4021 16.6623 25.3209 16.8109 25.2684H16.8097Z" fill="#18181B"/>
</svg>
