<svg width="48" height="48" viewBox="0 0 48 48" fill="none" xmlns="http://www.w3.org/2000/svg">
<rect width="48" height="48" rx="7" fill="#E6EB3E"/>
<path fill-rule="evenodd" clip-rule="evenodd" d="M17.9999 16.8V20.4H16.7999C16.1634 20.4 15.5529 20.6529 15.1028 21.1029C14.6528 21.553 14.3999 22.1635 14.3999 22.8V26.4C14.3999 27.0365 14.6528 27.647 15.1028 28.0971C15.5529 28.5471 16.1634 28.8 16.7999 28.8H17.9999V31.2C17.9999 31.8365 18.2528 32.447 18.7028 32.8971C19.1529 33.3471 19.7634 33.6 20.3999 33.6H27.5999C28.2364 33.6 28.8469 33.3471 29.297 32.8971C29.747 32.447 29.9999 31.8365 29.9999 31.2V28.8H31.1999C31.8364 28.8 32.4469 28.5471 32.897 28.0971C33.347 27.647 33.5999 27.0365 33.5999 26.4V22.8C33.5999 22.1635 33.347 21.553 32.897 21.1029C32.4469 20.6529 31.8364 20.4 31.1999 20.4H29.9999V16.8C29.9999 16.1635 29.747 15.553 29.297 15.1029C28.8469 14.6529 28.2364 14.4 27.5999 14.4H20.3999C19.7634 14.4 19.1529 14.6529 18.7028 15.1029C18.2528 15.553 17.9999 16.1635 17.9999 16.8V16.8ZM27.5999 16.8H20.3999V20.4H27.5999V16.8ZM27.5999 26.4H20.3999V31.2H27.5999V26.4Z" fill="#18181B"/>
</svg>
