<svg width="48" height="48" viewBox="0 0 48 48" fill="none" xmlns="http://www.w3.org/2000/svg">
<rect width="48" height="48" rx="7" fill="#3EEB5E"/>
<path d="M30 21.6C30.7309 21.6001 31.4446 21.3775 32.0461 20.9621C32.6475 20.5467 33.1083 19.958 33.367 19.2743C33.6258 18.5907 33.6702 17.8444 33.4946 17.1349C33.3189 16.4253 32.9314 15.786 32.3836 15.3021C31.8357 14.8181 31.1536 14.5124 30.4278 14.4255C29.702 14.3387 28.9669 14.4748 28.3204 14.8159C27.6738 15.157 27.1464 15.6868 26.8083 16.3349C26.4702 16.983 26.3374 17.7186 26.4276 18.444L20.4996 21.408C19.991 20.9177 19.3495 20.5877 18.6548 20.4594C17.9601 20.331 17.243 20.4098 16.5928 20.6861C15.9426 20.9624 15.3881 21.4238 14.9983 22.013C14.6085 22.6022 14.4006 23.293 14.4006 23.9994C14.4006 24.7059 14.6085 25.3967 14.9983 25.9859C15.3881 26.575 15.9426 27.0365 16.5928 27.3127C17.243 27.589 17.9601 27.6679 18.6548 27.5395C19.3495 27.4111 19.991 27.0812 20.4996 26.5908L26.4276 29.5548C26.3226 30.3975 26.5188 31.2502 26.9817 31.9622C27.4446 32.6741 28.1442 33.1996 28.957 33.4456C29.7698 33.6916 30.6434 33.6424 31.4234 33.3066C32.2034 32.9708 32.8396 32.3701 33.2195 31.6107C33.5995 30.8512 33.6987 29.9819 33.4997 29.1563C33.3007 28.3307 32.8162 27.6021 32.132 27.0992C31.4477 26.5963 30.6077 26.3514 29.7604 26.4079C28.913 26.4645 28.113 26.8187 27.5016 27.408L21.5736 24.444C21.6099 24.1491 21.6099 23.8509 21.5736 23.556L27.5016 20.592C28.1472 21.216 29.028 21.6 30 21.6Z" fill="#18181B"/>
</svg>
