<svg width="48" height="48" viewBox="0 0 48 48" fill="none" xmlns="http://www.w3.org/2000/svg">
<rect width="48" height="48" rx="7" fill="#3EB7EB"/>
<path fill-rule="evenodd" clip-rule="evenodd" d="M14.3999 23.4C14.3999 24.5139 14.8424 25.5822 15.6301 26.3698C16.4177 27.1575 17.486 27.6 18.5999 27.6H22.7999V30.7032L21.2483 29.1516C21.022 28.933 20.7189 28.8121 20.4042 28.8148C20.0896 28.8175 19.7886 28.9437 19.5661 29.1662C19.3436 29.3887 19.2174 29.6897 19.2147 30.0043C19.212 30.319 19.3329 30.6221 19.5515 30.8484L23.1515 34.4484C23.3765 34.6734 23.6817 34.7997 23.9999 34.7997C24.3181 34.7997 24.6233 34.6734 24.8483 34.4484L28.4483 30.8484C28.6669 30.6221 28.7878 30.319 28.7851 30.0043C28.7824 29.6897 28.6562 29.3887 28.4337 29.1662C28.2112 28.9437 27.9102 28.8175 27.5956 28.8148C27.2809 28.8121 26.9778 28.933 26.7515 29.1516L25.1999 30.7032V27.6H28.1999C28.94 27.5996 29.6721 27.447 30.3507 27.1518C31.0294 26.8566 31.6401 26.425 32.145 25.8839C32.6499 25.3428 33.0382 24.7037 33.2857 24.0062C33.5333 23.3088 33.6348 22.5679 33.584 21.8295C33.5333 21.0912 33.3313 20.3712 32.9906 19.7142C32.6499 19.0572 32.1778 18.4772 31.6036 18.0103C31.0294 17.5434 30.3653 17.1995 29.6526 17C28.94 16.8004 28.1939 16.7495 27.4607 16.8504C27.319 16.2247 27.0533 15.6337 26.6794 15.1124C26.3055 14.5911 25.831 14.1499 25.2838 13.8151C24.7366 13.4802 24.1278 13.2583 23.4934 13.1626C22.8591 13.0669 22.212 13.0992 21.5903 13.2578C20.9687 13.4163 20.3851 13.6978 19.874 14.0856C19.3629 14.4734 18.9347 14.9596 18.6147 15.5157C18.2947 16.0717 18.0893 16.6862 18.0107 17.3229C17.9321 17.9596 17.9819 18.6056 18.1571 19.2228C17.1255 19.3322 16.1709 19.8194 15.4772 20.5907C14.7835 21.3619 14.3998 22.3626 14.3999 23.4V23.4ZM25.1999 27.6H22.7999V21.6C22.7999 21.2817 22.9263 20.9765 23.1514 20.7515C23.3764 20.5264 23.6816 20.4 23.9999 20.4C24.3182 20.4 24.6234 20.5264 24.8484 20.7515C25.0735 20.9765 25.1999 21.2817 25.1999 21.6V27.6Z" fill="#18181B"/>
</svg>
