<svg width="48" height="48" viewBox="0 0 48 48" fill="none" xmlns="http://www.w3.org/2000/svg">
<rect width="48" height="48" rx="7" fill="#3EB7EB"/>
<path fill-rule="evenodd" clip-rule="evenodd" d="M15.8065 18.2064C16.7066 17.3065 17.9273 16.801 19.2001 16.801C20.4729 16.801 21.6936 17.3065 22.5937 18.2064L24.0001 19.6116L25.4065 18.2064C25.8493 17.7479 26.3789 17.3823 26.9646 17.1307C27.5502 16.8791 28.18 16.7467 28.8174 16.7412C29.4547 16.7357 30.0868 16.8571 30.6767 17.0985C31.2666 17.3398 31.8025 17.6962 32.2532 18.1469C32.7039 18.5976 33.0603 19.1335 33.3016 19.7234C33.543 20.3133 33.6644 20.9454 33.6589 21.5827C33.6534 22.2201 33.5209 22.8499 33.2694 23.4355C33.0178 24.0212 32.6521 24.5508 32.1937 24.9936L24.0001 33.1884L15.8065 24.9936C14.9066 24.0935 14.4011 22.8728 14.4011 21.6C14.4011 20.3272 14.9066 19.1065 15.8065 18.2064V18.2064Z" fill="#18181B"/>
</svg>
