<svg width="48" height="48" viewBox="0 0 48 48" fill="none" xmlns="http://www.w3.org/2000/svg">
<rect width="48" height="48" rx="7" fill="#3EB7EB"/>
<path fill-rule="evenodd" clip-rule="evenodd" d="M18.06 16.86C19.6354 15.2846 21.772 14.3996 24 14.3996C26.2279 14.3996 28.3646 15.2846 29.94 16.86C31.5154 18.4354 32.4004 20.5721 32.4004 22.8C32.4004 25.0279 31.5154 27.1646 29.94 28.74L24 34.68L18.06 28.74C17.2799 27.96 16.6611 27.0339 16.2389 26.0147C15.8167 24.9955 15.5994 23.9032 15.5994 22.8C15.5994 21.6968 15.8167 20.6044 16.2389 19.5853C16.6611 18.5661 17.2799 17.64 18.06 16.86V16.86ZM24 25.2C24.6365 25.2 25.2469 24.9471 25.697 24.497C26.1471 24.047 26.4 23.4365 26.4 22.8C26.4 22.1635 26.1471 21.553 25.697 21.1029C25.2469 20.6529 24.6365 20.4 24 20.4C23.3635 20.4 22.753 20.6529 22.3029 21.1029C21.8528 21.553 21.6 22.1635 21.6 22.8C21.6 23.4365 21.8528 24.047 22.3029 24.497C22.753 24.9471 23.3635 25.2 24 25.2Z" fill="#18181B"/>
</svg>
