<svg width="48" height="48" viewBox="0 0 48 48" fill="none" xmlns="http://www.w3.org/2000/svg">
<rect width="48" height="48" rx="7" fill="#3EB7EB"/>
<path fill-rule="evenodd" clip-rule="evenodd" d="M15.5999 15.6C15.2816 15.6 14.9764 15.7264 14.7514 15.9515C14.5263 16.1765 14.3999 16.4817 14.3999 16.8V31.2C14.3999 31.5183 14.5263 31.8235 14.7514 32.0485C14.9764 32.2736 15.2816 32.4 15.5999 32.4C15.9182 32.4 16.2234 32.2736 16.4484 32.0485C16.6735 31.8235 16.7999 31.5183 16.7999 31.2V16.8C16.7999 16.4817 16.6735 16.1765 16.4484 15.9515C16.2234 15.7264 15.9182 15.6 15.5999 15.6V15.6ZM27.9515 26.7516C27.7329 26.9779 27.612 27.2811 27.6147 27.5957C27.6174 27.9103 27.7436 28.2113 27.9661 28.4338C28.1886 28.6563 28.4896 28.7825 28.8042 28.7852C29.1189 28.7879 29.422 28.667 29.6483 28.4484L33.2483 24.8484C33.4733 24.6234 33.5996 24.3182 33.5996 24C33.5996 23.6818 33.4733 23.3766 33.2483 23.1516L29.6483 19.5516C29.5376 19.437 29.4052 19.3456 29.2588 19.2827C29.1124 19.2198 28.9549 19.1867 28.7956 19.1853C28.6362 19.1839 28.4782 19.2143 28.3308 19.2746C28.1833 19.335 28.0493 19.4241 27.9366 19.5367C27.824 19.6494 27.7349 19.7834 27.6745 19.9309C27.6142 20.0783 27.5838 20.2364 27.5852 20.3957C27.5866 20.555 27.6197 20.7125 27.6826 20.8589C27.7455 21.0053 27.8369 21.1377 27.9515 21.2484L29.5031 22.8H20.3999C20.0816 22.8 19.7764 22.9264 19.5514 23.1515C19.3263 23.3765 19.1999 23.6817 19.1999 24C19.1999 24.3183 19.3263 24.6235 19.5514 24.8485C19.7764 25.0736 20.0816 25.2 20.3999 25.2H29.5031L27.9515 26.7516V26.7516Z" fill="#18181B"/>
</svg>
