<svg width="48" height="48" viewBox="0 0 48 48" fill="none" xmlns="http://www.w3.org/2000/svg">
<rect width="48" height="48" rx="7" fill="#3EB7EB"/>
<path d="M25.2001 32.4C25.2002 32.6045 25.2526 32.8055 25.3522 32.9841C25.4518 33.1626 25.5954 33.3128 25.7694 33.4202C25.9433 33.5277 26.1418 33.5889 26.3461 33.5981C26.5504 33.6073 26.7536 33.5642 26.9365 33.4728L31.7365 31.0728C31.9358 30.9732 32.1034 30.8201 32.2206 30.6306C32.3378 30.4412 32.4 30.2228 32.4001 30V23.0832C32.4 22.8787 32.3476 22.6777 32.248 22.4991C32.1484 22.3206 32.0048 22.1704 31.8308 22.063C31.6569 21.9555 31.4584 21.8943 31.2541 21.8851C31.0498 21.8759 30.8466 21.919 30.6637 22.0104L25.8637 24.4104C25.6644 24.51 25.4968 24.6631 25.3796 24.8526C25.2624 25.042 25.2002 25.2604 25.2001 25.4832V32.4ZM30.2533 19.5312C30.4524 19.4314 30.6197 19.2782 30.7367 19.0888C30.8537 18.8993 30.9156 18.6811 30.9156 18.4584C30.9156 18.2357 30.8537 18.0175 30.7367 17.828C30.6197 17.6385 30.4524 17.4854 30.2533 17.3856L24.5365 14.5272C24.3699 14.444 24.1863 14.4006 24.0001 14.4006C23.8139 14.4006 23.6303 14.444 23.4637 14.5272L17.7469 17.3856C17.5478 17.4854 17.3805 17.6385 17.2635 17.828C17.1465 18.0175 17.0846 18.2357 17.0846 18.4584C17.0846 18.6811 17.1465 18.8993 17.2635 19.0888C17.3805 19.2782 17.5478 19.4314 17.7469 19.5312L23.4637 22.3896C23.6303 22.4728 23.8139 22.5162 24.0001 22.5162C24.1863 22.5162 24.3699 22.4728 24.5365 22.3896L30.2533 19.5312V19.5312ZM17.3365 22.0104C17.1536 21.919 16.9504 21.8759 16.7461 21.8851C16.5418 21.8943 16.3433 21.9555 16.1694 22.063C15.9954 22.1704 15.8518 22.3206 15.7522 22.4991C15.6526 22.6777 15.6002 22.8787 15.6001 23.0832V30C15.6002 30.2228 15.6624 30.4412 15.7796 30.6306C15.8968 30.8201 16.0644 30.9732 16.2637 31.0728L21.0637 33.4728C21.2466 33.5642 21.4498 33.6073 21.6541 33.5981C21.8584 33.5889 22.0569 33.5277 22.2308 33.4202C22.4048 33.3128 22.5484 33.1626 22.648 32.9841C22.7476 32.8055 22.8 32.6045 22.8001 32.4V25.4832C22.8 25.2604 22.7378 25.042 22.6206 24.8526C22.5034 24.6631 22.3358 24.51 22.1365 24.4104L17.3365 22.0104V22.0104Z" fill="#18181B"/>
</svg>
