<svg width="48" height="48" viewBox="0 0 48 48" fill="none" xmlns="http://www.w3.org/2000/svg">
<rect width="48" height="48" rx="7" fill="#3EB7EB"/>
<path fill-rule="evenodd" clip-rule="evenodd" d="M24.0001 22.8C24.9549 22.8 25.8706 22.4207 26.5457 21.7456C27.2208 21.0705 27.6001 20.1548 27.6001 19.2C27.6001 18.2452 27.2208 17.3296 26.5457 16.6544C25.8706 15.9793 24.9549 15.6 24.0001 15.6C23.0453 15.6 22.1296 15.9793 21.4545 16.6544C20.7794 17.3296 20.4001 18.2452 20.4001 19.2C20.4001 20.1548 20.7794 21.0705 21.4545 21.7456C22.1296 22.4207 23.0453 22.8 24.0001 22.8V22.8ZM15.6001 33.6C15.6001 32.4969 15.8174 31.4046 16.2395 30.3855C16.6616 29.3663 17.2804 28.4403 18.0604 27.6603C18.8404 26.8803 19.7664 26.2616 20.7856 25.8394C21.8047 25.4173 22.897 25.2 24.0001 25.2C25.1032 25.2 26.1955 25.4173 27.2146 25.8394C28.2338 26.2616 29.1598 26.8803 29.9398 27.6603C30.7198 28.4403 31.3385 29.3663 31.7607 30.3855C32.1828 31.4046 32.4001 32.4969 32.4001 33.6H15.6001Z" fill="#18181B"/>
</svg>
