<svg width="28" height="28" viewBox="0 0 28 28" fill="none" xmlns="http://www.w3.org/2000/svg">
<g filter="url(#filter0_i_8621_519)">
<rect width="28" height="28" rx="4" fill="url(#paint0_linear_8621_519)"/>
</g>
<path fill-rule="evenodd" clip-rule="evenodd" d="M7.88087 10.4809C8.12465 10.2372 8.45525 10.1003 8.79997 10.1003C9.14468 10.1003 9.47528 10.2372 9.71907 10.4809L14 14.7618L18.2809 10.4809C18.4008 10.3567 18.5442 10.2577 18.7028 10.1896C18.8614 10.1214 19.032 10.0856 19.2046 10.0841C19.3773 10.0826 19.5484 10.1155 19.7082 10.1808C19.868 10.2462 20.0131 10.3427 20.1352 10.4648C20.2572 10.5868 20.3538 10.732 20.4191 10.8917C20.4845 11.0515 20.5174 11.2227 20.5159 11.3953C20.5144 11.5679 20.4785 11.7385 20.4104 11.8971C20.3423 12.0557 20.2432 12.1992 20.1191 12.3191L14.9191 17.5191C14.6753 17.7628 14.3447 17.8997 14 17.8997C13.6553 17.8997 13.3247 17.7628 13.0809 17.5191L7.88087 12.3191C7.63715 12.0753 7.50024 11.7447 7.50024 11.4C7.50024 11.0553 7.63715 10.7247 7.88087 10.4809V10.4809Z" fill="white"/>
<defs>
<filter id="filter0_i_8621_519" x="0" y="-3" width="30" height="31" filterUnits="userSpaceOnUse" color-interpolation-filters="sRGB">
<feFlood flood-opacity="0" result="BackgroundImageFix"/>
<feBlend mode="normal" in="SourceGraphic" in2="BackgroundImageFix" result="shape"/>
<feColorMatrix in="SourceAlpha" type="matrix" values="0 0 0 0 0 0 0 0 0 0 0 0 0 0 0 0 0 0 127 0" result="hardAlpha"/>
<feMorphology radius="2" operator="erode" in="SourceAlpha" result="effect1_innerShadow_8621_519"/>
<feOffset dx="2" dy="-3"/>
<feGaussianBlur stdDeviation="2.5"/>
<feComposite in2="hardAlpha" operator="arithmetic" k2="-1" k3="1"/>
<feColorMatrix type="matrix" values="0 0 0 0 0 0 0 0 0 0 0 0 0 0 0 0 0 0 0.25 0"/>
<feBlend mode="normal" in2="shape" result="effect1_innerShadow_8621_519"/>
</filter>
<linearGradient id="paint0_linear_8621_519" x1="37" y1="-10.5" x2="-2.33629e-07" y2="34.5" gradientUnits="userSpaceOnUse">
<stop stop-color="#6A00FF"/>
<stop offset="0.566764" stop-color="#6A1DD7"/>
<stop offset="1" stop-color="#400099"/>
</linearGradient>
</defs>
</svg>
