<svg width="48" height="48" viewBox="0 0 48 48" fill="none" xmlns="http://www.w3.org/2000/svg">
<rect width="48" height="48" rx="7" fill="url(#paint0_linear_8630_525)"/>
<path fill-rule="evenodd" clip-rule="evenodd" d="M22.8001 14.4C22.5773 14.4001 22.3589 14.4623 22.1695 14.5795C21.98 14.6967 21.8269 14.8643 21.7273 15.0636L20.8585 16.8H16.8001C16.4818 16.8 16.1766 16.9265 15.9516 17.1515C15.7265 17.3765 15.6001 17.6818 15.6001 18C15.6001 18.3183 15.7265 18.6235 15.9516 18.8486C16.1766 19.0736 16.4818 19.2 16.8001 19.2V31.2C16.8001 31.8365 17.053 32.447 17.503 32.8971C17.9531 33.3472 18.5636 33.6 19.2001 33.6H28.8001C29.4366 33.6 30.0471 33.3472 30.4972 32.8971C30.9472 32.447 31.2001 31.8365 31.2001 31.2V19.2C31.5184 19.2 31.8236 19.0736 32.0486 18.8486C32.2737 18.6235 32.4001 18.3183 32.4001 18C32.4001 17.6818 32.2737 17.3765 32.0486 17.1515C31.8236 16.9265 31.5184 16.8 31.2001 16.8H27.1417L26.2729 15.0636C26.1733 14.8643 26.0202 14.6967 25.8307 14.5795C25.6413 14.4623 25.4229 14.4001 25.2001 14.4H22.8001ZM20.4001 21.6C20.4001 21.2818 20.5265 20.9765 20.7516 20.7515C20.9766 20.5265 21.2818 20.4 21.6001 20.4C21.9184 20.4 22.2236 20.5265 22.4486 20.7515C22.6737 20.9765 22.8001 21.2818 22.8001 21.6V28.8C22.8001 29.1183 22.6737 29.4235 22.4486 29.6486C22.2236 29.8736 21.9184 30 21.6001 30C21.2818 30 20.9766 29.8736 20.7516 29.6486C20.5265 29.4235 20.4001 29.1183 20.4001 28.8V21.6ZM26.4001 20.4C26.0818 20.4 25.7766 20.5265 25.5516 20.7515C25.3265 20.9765 25.2001 21.2818 25.2001 21.6V28.8C25.2001 29.1183 25.3265 29.4235 25.5516 29.6486C25.7766 29.8736 26.0818 30 26.4001 30C26.7184 30 27.0236 29.8736 27.2486 29.6486C27.4737 29.4235 27.6001 29.1183 27.6001 28.8V21.6C27.6001 21.2818 27.4737 20.9765 27.2486 20.7515C27.0236 20.5265 26.7184 20.4 26.4001 20.4Z" fill="#18181B"/>
<defs>
<linearGradient id="paint0_linear_8630_525" x1="41" y1="2.3966e-07" x2="4.5" y2="41" gradientUnits="userSpaceOnUse">
<stop stop-color="white"/>
<stop offset="1" stop-color="#F8F2F2"/>
</linearGradient>
</defs>
</svg>
