<svg width="48" height="48" viewBox="0 0 48 48" fill="none" xmlns="http://www.w3.org/2000/svg">
<g filter="url(#filter0_i_8630_525)">
<rect width="48" height="48" rx="7" fill="url(#paint0_linear_8630_525)"/>
</g>
<path fill-rule="evenodd" clip-rule="evenodd" d="M24 22.4C25.2731 22.4 26.494 21.8943 27.3942 20.9941C28.2943 20.0939 28.8001 18.873 28.8001 17.6C28.8001 16.3269 28.2943 15.1061 27.3942 14.2059C26.494 13.3057 25.2731 12.8 24 12.8C22.727 12.8 21.5061 13.3057 20.6059 14.2059C19.7058 15.1061 19.2 16.3269 19.2 17.6C19.2 18.873 19.7058 20.0939 20.6059 20.9941C21.5061 21.8943 22.727 22.4 24 22.4V22.4ZM12.8 36.8C12.8 35.3292 13.0897 33.8728 13.6526 32.5139C14.2155 31.1551 15.0404 29.9204 16.0805 28.8804C17.1205 27.8404 18.3551 27.0154 19.714 26.4525C21.0728 25.8897 22.5292 25.6 24 25.6C25.4709 25.6 26.9273 25.8897 28.2861 26.4525C29.645 27.0154 30.8796 27.8404 31.9196 28.8804C32.9597 29.9204 33.7846 31.1551 34.3475 32.5139C34.9104 33.8728 35.2001 35.3292 35.2001 36.8H12.8Z" fill="#18181B"/>
<defs>
<filter id="filter0_i_8630_525" x="0" y="-3" width="50" height="51" filterUnits="userSpaceOnUse" color-interpolation-filters="sRGB">
<feFlood flood-opacity="0" result="BackgroundImageFix"/>
<feBlend mode="normal" in="SourceGraphic" in2="BackgroundImageFix" result="shape"/>
<feColorMatrix in="SourceAlpha" type="matrix" values="0 0 0 0 0 0 0 0 0 0 0 0 0 0 0 0 0 0 127 0" result="hardAlpha"/>
<feOffset dx="2" dy="-3"/>
<feGaussianBlur stdDeviation="2"/>
<feComposite in2="hardAlpha" operator="arithmetic" k2="-1" k3="1"/>
<feColorMatrix type="matrix" values="0 0 0 0 0 0 0 0 0 0 0 0 0 0 0 0 0 0 0.25 0"/>
<feBlend mode="normal" in2="shape" result="effect1_innerShadow_8630_525"/>
</filter>
<linearGradient id="paint0_linear_8630_525" x1="41" y1="2.3966e-07" x2="4.5" y2="41" gradientUnits="userSpaceOnUse">
<stop stop-color="#E4F1FF"/>
<stop offset="1" stop-color="#EDF7F9"/>
</linearGradient>
</defs>
</svg>
